<svg width="66" height="50" viewBox="0 0 66 50" fill="none" xmlns="http://www.w3.org/2000/svg">
<path d="M46.8793 5.79004H32.249V36.0703L65.0145 32.2854V19.0366L57.5325 16.5693L46.8793 5.79004Z" fill="#FADE56"/>
<path d="M61.6161 32.2848C59.4029 29.9542 56.2958 28.4995 52.8566 28.4995C49.4176 28.4995 46.3103 29.9542 44.097 32.2848L32.249 32.2845L37.8605 40.8014L65.0148 40.8018V32.2848H61.6161Z" fill="#5B5B5B"/>
<path d="M37.8582 0.111816V28.4996L9.80078 32.2849L22.8946 0.112498L37.8582 0.111816Z" fill="#EDEDED"/>
<path d="M19.1544 3.89714V32.2849L0.451172 28.4996V0.111816H15.4135L19.1544 3.89714Z" fill="#EDEDED"/>
<path d="M22.896 0.112793H15.4141V14.3059H22.896V0.112793Z" fill="#FADE56"/>
<path d="M37.8611 28.4995H0.451172V32.2847L20.0914 37.0161L37.8611 32.2845V28.4995Z" fill="#CCCCCC"/>
<path d="M37.8601 32.2842H0.450195V40.8013H37.8601V32.2842Z" fill="#B2B2B2"/>
<path d="M12.6089 49.3188L7.55859 40.802L12.6089 32.2852C17.2502 32.2852 21.0262 36.1058 21.0262 40.802C21.0262 45.4982 17.2504 49.3188 12.6089 49.3188Z" fill="#383838"/>
<path d="M4.19238 40.8022C4.19238 45.4984 7.96837 49.3191 12.6097 49.3191V32.2852C7.96837 32.2853 4.19238 36.106 4.19238 40.8022Z" fill="#4C4C4C"/>
<path d="M12.6105 45.5337L9.80469 40.802L12.6105 36.0703C15.1889 36.0703 17.2867 38.193 17.2867 40.802C17.2867 43.4112 15.1889 45.5337 12.6105 45.5337Z" fill="#CCCCCC"/>
<path d="M7.93359 40.8019C7.93359 43.4108 10.0314 45.5334 12.6098 45.5334V36.0703C10.0312 36.0703 7.93359 38.1929 7.93359 40.8019Z" fill="black"/>
<path d="M52.8569 49.3186L47.8066 40.8019L52.8569 32.2852C57.4982 32.2852 61.2741 36.1058 61.2741 40.8019C61.2741 45.498 57.4982 49.3186 52.8569 49.3186Z" fill="#383838"/>
<path d="M44.4404 40.8022C44.4404 45.4984 48.2164 49.3191 52.8577 49.3191V32.2852C48.2164 32.2853 44.4404 36.106 44.4404 40.8022Z" fill="#4C4C4C"/>
<path d="M52.8566 45.5334L50.0508 40.8019L52.8566 36.0703C55.435 36.0703 57.5328 38.1929 57.5328 40.8019C57.5328 43.4108 55.435 45.5334 52.8566 45.5334Z" fill="#CCCCCC"/>
<path d="M48.1807 40.8019C48.1807 43.4108 50.2785 45.5334 52.8569 45.5334V36.0703C50.2785 36.0703 48.1807 38.1929 48.1807 40.8019Z" fill="black"/>
</svg>
