<svg width="73" height="73" viewBox="0 0 73 73" fill="none" xmlns="http://www.w3.org/2000/svg">
<g clip-path="url(#clip0_7_10839)">
<path d="M54.4355 20.4136C54.4355 26.8097 51.4416 32.571 46.8144 36.2908L34.0219 40.8271L21.2295 36.2908C16.6022 32.571 13.6084 26.8097 13.6084 20.4136C13.6084 9.16327 22.772 0 34.0219 0C45.2719 0 54.4355 9.16327 54.4355 20.4136Z" fill="#2D2C2D"/>
<path d="M54.4355 36.291V45.3637L39.2487 49.9L22.6811 45.3637H13.6084V36.291H21.2295L34.0219 40.8274L46.8144 36.291H54.4355Z" fill="#FADE56"/>
<path d="M63.5087 54.436H49.8997L35.8468 58.9723L22.6816 54.436V45.3633H63.5087V54.436Z" fill="black"/>
<path d="M49.8994 63.5087L32.4444 68.0451L13.6086 63.5087H9.07227V54.436H49.8994V63.5087Z" fill="#FADE56"/>
<path d="M13.6084 63.5088H54.4355V72.5815H13.6084V63.5088Z" fill="black"/>
<path d="M46.8155 36.291C43.3223 39.1489 38.8769 40.8274 34.023 40.8274C29.1691 40.8274 24.7235 39.1489 21.2305 36.291H46.8155Z" fill="#9B9B9B"/>
<path d="M29.6844 36V1.51931H38.7633C42.9808 1.51931 46.1037 2.37247 48.132 4.0788C50.1925 5.78512 51.2227 8.26413 51.2227 11.5158C51.2227 13.7051 50.7237 15.5885 49.7257 17.166C48.7276 18.7114 47.2466 19.9026 45.2828 20.7396C43.3511 21.5767 40.9526 21.9952 38.0872 21.9952H34.0307V36H29.6844ZM25.4829 29.4322V26.2933H41.9989V29.4322H25.4829ZM25.4829 21.9952V18.325H36.5419V21.9952H25.4829ZM37.4594 18.325C39.4233 18.325 41.0813 18.1158 42.4335 17.6972C43.8179 17.2787 44.8803 16.5865 45.6208 15.6207C46.3613 14.6548 46.7315 13.3348 46.7315 11.6607C46.7315 9.47144 46.0554 7.8456 44.7033 6.78317C43.3511 5.72074 41.2423 5.18952 38.377 5.18952H34.0307V18.325H37.4594Z" fill="#FADE56"/>
</g>
<defs>
<clipPath id="clip0_7_10839">
<rect width="72.5815" height="72.5815" fill="white"/>
</clipPath>
</defs>
</svg>
