<svg width="47" height="46" viewBox="0 0 47 46" fill="none" xmlns="http://www.w3.org/2000/svg">
<path fill-rule="evenodd" clip-rule="evenodd" d="M0.479248 19.045C0.479248 8.69533 10.8898 0.330078 23.4823 0.330078C36.1104 0.330078 46.5209 8.69533 46.5209 19.045C46.5209 24.2604 44.2378 29.1022 40.48 33.2061C36.3343 37.733 31.2247 41.6771 25.4732 44.773C24.1569 45.4885 22.9689 45.5425 21.5242 44.773C15.74 41.6771 10.6303 37.733 6.52019 33.2061C2.75962 29.1022 0.479248 24.2604 0.479248 19.045ZM15.9011 19.6278C15.9011 23.0949 19.3067 25.8218 23.4823 25.8218C27.6607 25.8218 31.099 23.0949 31.099 19.6278C31.099 16.1876 27.6607 13.3279 23.4823 13.3279C19.3067 13.3279 15.9011 16.1876 15.9011 19.6278Z" fill="#200E32"/>
</svg>
